<svg xmlns="http://www.w3.org/2000/svg" viewBox="0 0 200 220">
  <path d="M 28 34 L 172 34 L 172 122 C 172 160, 138 186, 100 198 C 62 186, 28 160, 28 122 Z" fill="none" stroke="#FFFFFF" stroke-width="3.5"></path>
  <path d="M 36 42 L 164 42 L 164 120 C 164 154, 134 178, 100 190 C 66 178, 36 154, 36 120 Z" fill="none" stroke="#FFFFFF" stroke-width="1" opacity="0.4"></path>
  <g transform="translate(22 22) scale(0.78)">
  <path d="M 54 82 C 54 42, 146 42, 146 82 L 146 150 C 146 160, 138 162, 132 154 L 124 144 L 116 154 L 108 144 L 100 154 L 92 144 L 84 154 L 76 144 L 68 154 C 62 162, 54 160, 54 150 Z" fill="#FFFFFF"></path>
  <g fill="#F5F2EC">
    <path d="M 74 94 L 96 102 L 74 102 Z"></path>
    <path d="M 126 94 L 104 102 L 126 102 Z"></path>
  </g>
</g>
</svg>